<svg xmlns="http://www.w3.org/2000/svg" width="60" height="59.054" viewBox="0 0 60 59.054">
  <path id="Path_1" data-name="Path 1" d="M20.467,5.284a11.228,11.228,0,0,1,19.051,0l4.523,7.229L47.2,10.685a2.812,2.812,0,0,1,4.124,3.163l-2.742,10.24a2.816,2.816,0,0,1-3.445,1.992L34.9,23.339a2.805,2.805,0,0,1-.68-5.143l3.327-1.921L33.156,9.256a3.726,3.726,0,0,0-6.327,0l-2.05,3.281a3.75,3.75,0,0,1-6.362-3.972ZM50.321,29.514a3.745,3.745,0,0,1,5.108,1.23l2.859,4.581A11.221,11.221,0,0,1,48.774,52.5l-11.283-.012v3.749a2.814,2.814,0,0,1-4.8,1.992l-7.5-7.5a2.8,2.8,0,0,1,0-3.972l7.5-7.5a2.814,2.814,0,0,1,4.8,1.992V45H48.762A3.735,3.735,0,0,0,51.926,39.3l-2.859-4.581a3.743,3.743,0,0,1,1.254-5.2ZM7.6,25.882,4.217,23.925a2.805,2.805,0,0,1,.68-5.143l10.24-2.742a2.816,2.816,0,0,1,3.445,1.992L21.322,28.26a2.83,2.83,0,0,1-1.008,2.964,2.78,2.78,0,0,1-3.117.2l-3.1-1.793L8.059,39.285a3.735,3.735,0,0,0,3.163,5.706H15a3.749,3.749,0,1,1,0,7.5H11.223A11.221,11.221,0,0,1,1.709,35.313L7.6,25.882Z" transform="translate(0.002)" fill="#9acb34"/>
</svg>
